<?xml version="1.0" encoding="UTF-8"?><svg xmlns="http://www.w3.org/2000/svg" viewBox="0 0 495.23 199.82"><g id="a"/><g id="b"><g id="c"><g><path d="M0,53.98H34.14c.04,.82,.12,1.62,.12,2.42,0,38.22,.02,76.44,0,114.66,0,14.44-9.08,25.57-23.26,28.2-3.53,.66-7.24,.39-11,.56V53.98Z"/><path d="M495.23,146.04c-6.05,.11-11.97,.6-17.5-1.91-10.91-4.94-16.76-13.43-16.86-25.42-.16-20.87-.05-41.74-.04-62.6,0-.67,.1-1.33,.16-2.12h34.24v92.05Z"/><path d="M141.76,146.04c-6.05,.11-11.97,.6-17.5-1.91-10.91-4.94-16.76-13.43-16.86-25.42-.16-20.87-.05-41.74-.04-62.6,0-.67,.1-1.33,.16-2.12h34.24v92.05Z"/><path d="M374.74,146.04c6.05,.11,11.97,.6,17.5-1.91,10.91-4.94,16.76-13.43,16.86-25.42,.16-20.87,.05-41.74,.04-62.6,0-.67-.1-1.33-.16-2.12h-34.24v92.05Z"/><path d="M93.74,99.38c0-2.97,0-5.94,0-8.91,0-1.12,0-2.25,0-3.37v-.04c0-.63,0-1.26,0-1.9,0-1.44,.04-2.91-.19-4.33-2.17-13.49-9.94-22.4-22.65-27-9.68-3.5-19.59-2.91-29.96-.8,1.28,.49,2.11,.85,2.96,1.13,10.83,3.56,15.6,10.13,15.6,21.55,0,7.89,0,15.78,0,23.66s0,15.78,0,23.66c0,11.41-4.77,17.99-15.6,21.55-.85,.28-1.68,.64-2.96,1.13,10.38,2.11,20.28,2.7,29.96-.8,12.72-4.6,20.48-13.51,22.65-27,.23-1.42,.18-2.88,.19-4.33,0-.63,0-1.26,0-1.9v-.04c0-1.12,0-2.25,0-3.37,0-2.97,0-5.94,0-8.91Z"/><path d="M308.74,97.27c-5.49,5.76-9.34,12.28-11.2,19.92-1,4.13-1.16,8.29-.07,12.41,1.9,7.22,8.37,12.01,15.9,11.93,.65,0,1.29,0,2.65,0-1.6,1.05-2.59,1.85-3.7,2.41-8.39,4.22-17.19,6.5-26.65,5.05-9.95-1.52-14.76-10.21-15.86-17.21-.97-6.14,.15-11.87,3.52-17.01,8.34-12.71,20.64-17.64,35.41-17.5Z"/><path d="M107.83,16.88C107.8,7.55,115.2,.07,124.55,0c9.13-.07,16.71,7.47,16.75,16.64,.03,9.45-7.3,16.96-16.54,17.03-10.87,.08-17.71-9.41-16.92-16.79Z"/><path d="M477.89,33.67c-9.31-.03-16.87-7.59-16.82-16.83C461.12,7.65,468.74,.06,477.99,0c9.23-.06,16.97,7.78,16.86,17.09-.1,8.9-7.98,16.61-16.96,16.58Z"/><path d="M450.54,68.29c-.02,9.39-7.49,16.85-16.79,16.76-9.37-.09-16.76-7.52-16.78-16.86-.02-9.42,7.44-16.72,17.08-16.7,9.15,.02,16.51,7.51,16.49,16.8Z"/><path d="M356.28,83.72c-.08-9.31-4.1-17-11.03-23.18-8.07-7.19-19.65-9.81-30.76-9.08-25.04,.9-39.17,16.25-39.84,17-.92,1.03-.84,2.6,.19,3.53,.48,.43,1.08,.64,1.67,.64,.68,0,1.36-.28,1.86-.82,.14-.16,12.38-13.37,33.78-15.17,5.86,3.48,10.2,9.5,10.06,18.86-.32,22.6-.09,45.21-.09,67.81v2.71h34.13c.05-.59,.1-.97,.1-1.34,0-20.32,.1-40.64-.06-60.97Z"/><path d="M220.71,83.44l29.54-31.72c.94-1.01,.88-2.59-.12-3.53-1.01-.94-2.59-.88-3.53,.13l-8.6,9.24c-14.12,15.13-28.14,30.16-42.16,45.18-.19-.05-.37-.1-.56-.16V.98c-3.81,0-7.46-.53-10.91,.09-14.26,2.57-23.44,13.81-23.45,28.28-.02,38.08,0,76.15,0,114.23v2.34h34.48v-42.14c1.25,1.45,2.17,2.32,2.85,3.34,8.34,12.46,16.65,24.93,24.92,37.44,.76,1.15,1.55,1.58,2.94,1.57,12.2-.06,24.4-.03,36.59-.03,.65,0,1.3,0,2.46,0-14.98-21.12-29.69-41.86-44.44-62.66Z"/></g></g></g></svg>